STARTFONT 2.1
COMMENT Font holnormal
COMMENT Originally a BSD vfont.
FONT holnormal
SIZE 18 72 72
FONTBOUNDINGBOX 16 18 0 -5
STARTPROPERTIES 7
FONT_ASCENT 13
FONT_DESCENT 5
DEFAULT_CHAR 0
RESOLUTION 72
POINT_SIZE 180
_XMBDFED_INFO "Edited with xmbdfed 4.5."
QUAD_WIDTH 9
ENDPROPERTIES
CHARS 256
STARTCHAR <unknown>
ENCODING 0
SWIDTH 0 0
DWIDTH 0 0
BBX 0 0 0 0
BITMAP
ENDCHAR
STARTCHAR <unknown>
ENCODING 1
SWIDTH 0 0
DWIDTH 0 0
BBX 0 0 0 0
BITMAP
ENDCHAR
STARTCHAR <unknown>
ENCODING 2
SWIDTH 0 0
DWIDTH 0 0
BBX 0 0 0 0
BITMAP
ENDCHAR
STARTCHAR <unknown>
ENCODING 3
SWIDTH 0 0
DWIDTH 0 0
BBX 0 0 0 0
BITMAP
ENDCHAR
STARTCHAR <unknown>
ENCODING 4
SWIDTH 0 0
DWIDTH 0 0
BBX 0 0 0 0
BITMAP
ENDCHAR
STARTCHAR <unknown>
ENCODING 5
SWIDTH 0 0
DWIDTH 0 0
BBX 0 0 0 0
BITMAP
ENDCHAR
STARTCHAR <unknown>
ENCODING 6
SWIDTH 0 0
DWIDTH 0 0
BBX 0 0 0 0
BITMAP
ENDCHAR
STARTCHAR <unknown>
ENCODING 7
SWIDTH 0 0
DWIDTH 0 0
BBX 0 0 0 0
BITMAP
ENDCHAR
STARTCHAR <unknown>
ENCODING 8
SWIDTH 0 0
DWIDTH 0 0
BBX 0 0 0 0
BITMAP
ENDCHAR
STARTCHAR <unknown>
ENCODING 9
SWIDTH 0 0
DWIDTH 0 0
BBX 0 0 0 0
BITMAP
ENDCHAR
STARTCHAR <unknown>
ENCODING 10
SWIDTH 0 0
DWIDTH 0 0
BBX 0 0 0 0
BITMAP
ENDCHAR
STARTCHAR <unknown>
ENCODING 11
SWIDTH 0 0
DWIDTH 0 0
BBX 0 0 0 0
BITMAP
ENDCHAR
STARTCHAR <unknown>
ENCODING 12
SWIDTH 0 0
DWIDTH 0 0
BBX 0 0 0 0
BITMAP
ENDCHAR
STARTCHAR <unknown>
ENCODING 13
SWIDTH 0 0
DWIDTH 0 0
BBX 0 0 0 0
BITMAP
ENDCHAR
STARTCHAR <unknown>
ENCODING 14
SWIDTH 0 0
DWIDTH 0 0
BBX 0 0 0 0
BITMAP
ENDCHAR
STARTCHAR <unknown>
ENCODING 15
SWIDTH 0 0
DWIDTH 0 0
BBX 0 0 0 0
BITMAP
ENDCHAR
STARTCHAR <unknown>
ENCODING 16
SWIDTH 0 0
DWIDTH 0 0
BBX 0 0 0 0
BITMAP
ENDCHAR
STARTCHAR <unknown>
ENCODING 17
SWIDTH 0 0
DWIDTH 0 0
BBX 0 0 0 0
BITMAP
ENDCHAR
STARTCHAR <unknown>
ENCODING 18
SWIDTH 0 0
DWIDTH 0 0
BBX 0 0 0 0
BITMAP
ENDCHAR
STARTCHAR <unknown>
ENCODING 19
SWIDTH 0 0
DWIDTH 0 0
BBX 0 0 0 0
BITMAP
ENDCHAR
STARTCHAR <unknown>
ENCODING 20
SWIDTH 0 0
DWIDTH 0 0
BBX 0 0 0 0
BITMAP
ENDCHAR
STARTCHAR <unknown>
ENCODING 21
SWIDTH 0 0
DWIDTH 0 0
BBX 0 0 0 0
BITMAP
ENDCHAR
STARTCHAR <unknown>
ENCODING 22
SWIDTH 0 0
DWIDTH 0 0
BBX 0 0 0 0
BITMAP
ENDCHAR
STARTCHAR <unknown>
ENCODING 23
SWIDTH 0 0
DWIDTH 0 0
BBX 0 0 0 0
BITMAP
ENDCHAR
STARTCHAR <unknown>
ENCODING 24
SWIDTH 0 0
DWIDTH 0 0
BBX 0 0 0 0
BITMAP
ENDCHAR
STARTCHAR <unknown>
ENCODING 25
SWIDTH 0 0
DWIDTH 0 0
BBX 0 0 0 0
BITMAP
ENDCHAR
STARTCHAR <unknown>
ENCODING 26
SWIDTH 0 0
DWIDTH 0 0
BBX 0 0 0 0
BITMAP
ENDCHAR
STARTCHAR <unknown>
ENCODING 27
SWIDTH 0 0
DWIDTH 0 0
BBX 0 0 0 0
BITMAP
ENDCHAR
STARTCHAR <unknown>
ENCODING 28
SWIDTH 0 0
DWIDTH 0 0
BBX 0 0 0 0
BITMAP
ENDCHAR
STARTCHAR <unknown>
ENCODING 29
SWIDTH 0 0
DWIDTH 0 0
BBX 0 0 0 0
BITMAP
ENDCHAR
STARTCHAR <unknown>
ENCODING 30
SWIDTH 0 0
DWIDTH 0 0
BBX 0 0 0 0
BITMAP
ENDCHAR
STARTCHAR <unknown>
ENCODING 31
SWIDTH 0 0
DWIDTH 0 0
BBX 0 0 0 0
BITMAP
ENDCHAR
STARTCHAR <unknown>
ENCODING 32
SWIDTH 500 0
DWIDTH 9 0
BBX 0 0 0 0
BITMAP
ENDCHAR
STARTCHAR <unknown>
ENCODING 33
SWIDTH 500 0
DWIDTH 9 0
BBX 3 12 3 0
BITMAP
40
E0
E0
E0
E0
40
40
40
00
00
40
40
ENDCHAR
STARTCHAR <unknown>
ENCODING 34
SWIDTH 500 0
DWIDTH 9 0
BBX 4 4 3 8
BITMAP
90
90
90
90
ENDCHAR
STARTCHAR <unknown>
ENCODING 35
SWIDTH 500 0
DWIDTH 9 0
BBX 8 11 1 0
BITMAP
12
12
12
7F
24
24
24
FE
48
48
48
ENDCHAR
STARTCHAR <unknown>
ENCODING 36
SWIDTH 500 0
DWIDTH 9 0
BBX 7 14 1 -2
BITMAP
10
10
7A
86
82
40
30
0C
02
82
C2
BC
10
10
ENDCHAR
STARTCHAR <unknown>
ENCODING 37
SWIDTH 500 0
DWIDTH 9 0
BBX 7 11 1 0
BITMAP
60
90
92
94
68
10
2C
52
92
12
0C
ENDCHAR
STARTCHAR <unknown>
ENCODING 38
SWIDTH 500 0
DWIDTH 9 0
BBX 8 11 1 0
BITMAP
30
48
40
40
20
52
8C
84
84
8A
73
ENDCHAR
STARTCHAR <unknown>
ENCODING 39
SWIDTH 500 0
DWIDTH 9 0
BBX 3 4 3 8
BITMAP
20
20
40
80
ENDCHAR
STARTCHAR <unknown>
ENCODING 40
SWIDTH 500 0
DWIDTH 9 0
BBX 4 14 3 -2
BITMAP
10
20
40
40
80
80
80
80
80
80
40
40
20
10
ENDCHAR
STARTCHAR <unknown>
ENCODING 41
SWIDTH 500 0
DWIDTH 9 0
BBX 4 14 3 -2
BITMAP
80
40
20
20
10
10
10
10
10
10
20
20
40
80
ENDCHAR
STARTCHAR <unknown>
ENCODING 42
SWIDTH 500 0
DWIDTH 9 0
BBX 7 7 1 3
BITMAP
10
10
BA
7C
38
28
44
ENDCHAR
STARTCHAR <unknown>
ENCODING 43
SWIDTH 500 0
DWIDTH 9 0
BBX 7 7 1 2
BITMAP
10
10
10
FE
10
10
10
ENDCHAR
STARTCHAR <unknown>
ENCODING 44
SWIDTH 500 0
DWIDTH 9 0
BBX 3 5 3 -3
BITMAP
60
60
20
40
80
ENDCHAR
STARTCHAR <unknown>
ENCODING 45
SWIDTH 500 0
DWIDTH 9 0
BBX 7 1 1 5
BITMAP
FE
ENDCHAR
STARTCHAR <unknown>
ENCODING 46
SWIDTH 500 0
DWIDTH 9 0
BBX 2 2 4 0
BITMAP
C0
C0
ENDCHAR
STARTCHAR <unknown>
ENCODING 47
SWIDTH 500 0
DWIDTH 9 0
BBX 7 13 1 -1
BITMAP
02
04
04
08
08
10
10
20
20
40
40
80
80
ENDCHAR
STARTCHAR <unknown>
ENCODING 48
SWIDTH 500 0
DWIDTH 9 0
BBX 6 11 2 0
BITMAP
78
84
84
84
84
84
84
84
84
84
78
ENDCHAR
STARTCHAR <unknown>
ENCODING 49
SWIDTH 500 0
DWIDTH 9 0
BBX 5 11 2 0
BITMAP
20
60
A0
20
20
20
20
20
20
20
F8
ENDCHAR
STARTCHAR <unknown>
ENCODING 50
SWIDTH 500 0
DWIDTH 9 0
BBX 7 11 1 0
BITMAP
3C
46
82
82
04
08
10
20
40
82
FE
ENDCHAR
STARTCHAR <unknown>
ENCODING 51
SWIDTH 500 0
DWIDTH 9 0
BBX 7 11 1 0
BITMAP
3C
46
42
02
04
1C
06
02
82
C4
78
ENDCHAR
STARTCHAR <unknown>
ENCODING 52
SWIDTH 500 0
DWIDTH 9 0
BBX 7 12 1 0
BITMAP
08
10
10
24
24
44
44
84
FE
04
04
04
ENDCHAR
STARTCHAR <unknown>
ENCODING 53
SWIDTH 500 0
DWIDTH 9 0
BBX 7 11 1 0
BITMAP
7E
40
40
40
7C
06
02
02
82
C4
78
ENDCHAR
STARTCHAR <unknown>
ENCODING 54
SWIDTH 500 0
DWIDTH 9 0
BBX 7 12 1 0
BITMAP
0C
30
40
40
80
BC
C6
82
82
82
C4
78
ENDCHAR
STARTCHAR <unknown>
ENCODING 55
SWIDTH 500 0
DWIDTH 9 0
BBX 7 11 1 0
BITMAP
FE
86
84
04
08
08
08
10
10
10
10
ENDCHAR
STARTCHAR <unknown>
ENCODING 56
SWIDTH 500 0
DWIDTH 9 0
BBX 7 11 1 0
BITMAP
38
4C
84
84
C8
7C
46
82
82
C4
78
ENDCHAR
STARTCHAR <unknown>
ENCODING 57
SWIDTH 500 0
DWIDTH 9 0
BBX 7 12 1 -1
BITMAP
3C
46
82
82
82
C6
7A
02
04
04
18
60
ENDCHAR
STARTCHAR <unknown>
ENCODING 58
SWIDTH 500 0
DWIDTH 9 0
BBX 2 8 4 0
BITMAP
C0
C0
00
00
00
00
C0
C0
ENDCHAR
STARTCHAR <unknown>
ENCODING 59
SWIDTH 500 0
DWIDTH 9 0
BBX 3 11 3 -3
BITMAP
60
60
00
00
00
00
60
60
20
40
80
ENDCHAR
STARTCHAR <unknown>
ENCODING 60
SWIDTH 500 0
DWIDTH 9 0
BBX 6 11 2 0
BITMAP
04
08
10
20
40
80
40
20
10
08
04
ENDCHAR
STARTCHAR <unknown>
ENCODING 61
SWIDTH 500 0
DWIDTH 9 0
BBX 7 3 1 4
BITMAP
FE
00
FE
ENDCHAR
STARTCHAR <unknown>
ENCODING 62
SWIDTH 500 0
DWIDTH 9 0
BBX 6 11 2 0
BITMAP
80
40
20
10
08
04
08
10
20
40
80
ENDCHAR
STARTCHAR <unknown>
ENCODING 63
SWIDTH 500 0
DWIDTH 9 0
BBX 7 12 1 0
BITMAP
3C
46
82
82
04
08
10
10
00
00
10
10
ENDCHAR
STARTCHAR <unknown>
ENCODING 64
SWIDTH 500 0
DWIDTH 9 0
BBX 8 11 1 0
BITMAP
18
64
42
8E
92
92
8C
80
41
62
1C
ENDCHAR
STARTCHAR <unknown>
ENCODING 65
SWIDTH 500 0
DWIDTH 9 0
BBX 9 12 0 0
BITMAP
0800
0800
1400
1400
1400
2200
2200
2200
7F00
4100
4100
E380
ENDCHAR
STARTCHAR <unknown>
ENCODING 66
SWIDTH 500 0
DWIDTH 9 0
BBX 7 12 1 0
BITMAP
F8
44
44
44
4C
78
44
42
42
42
46
FC
ENDCHAR
STARTCHAR <unknown>
ENCODING 67
SWIDTH 500 0
DWIDTH 9 0
BBX 7 12 1 0
BITMAP
3A
46
82
80
80
80
80
80
82
82
C4
78
ENDCHAR
STARTCHAR <unknown>
ENCODING 68
SWIDTH 500 0
DWIDTH 9 0
BBX 7 12 1 0
BITMAP
FC
46
42
42
42
42
42
42
42
42
44
F8
ENDCHAR
STARTCHAR <unknown>
ENCODING 69
SWIDTH 500 0
DWIDTH 9 0
BBX 7 12 1 0
BITMAP
FE
42
40
40
40
7C
40
40
40
40
42
FE
ENDCHAR
STARTCHAR <unknown>
ENCODING 70
SWIDTH 500 0
DWIDTH 9 0
BBX 7 12 1 0
BITMAP
FE
42
40
40
40
7C
40
40
40
40
40
E0
ENDCHAR
STARTCHAR <unknown>
ENCODING 71
SWIDTH 500 0
DWIDTH 9 0
BBX 8 12 1 0
BITMAP
3A
46
82
80
80
80
80
87
82
82
C6
7A
ENDCHAR
STARTCHAR <unknown>
ENCODING 72
SWIDTH 500 0
DWIDTH 9 0
BBX 8 12 1 0
BITMAP
E7
42
42
42
42
7E
42
42
42
42
42
E7
ENDCHAR
STARTCHAR <unknown>
ENCODING 73
SWIDTH 500 0
DWIDTH 9 0
BBX 5 12 2 0
BITMAP
F8
20
20
20
20
20
20
20
20
20
20
F8
ENDCHAR
STARTCHAR <unknown>
ENCODING 74
SWIDTH 500 0
DWIDTH 9 0
BBX 8 12 1 0
BITMAP
1F
04
04
04
04
04
04
04
04
84
CC
78
ENDCHAR
STARTCHAR <unknown>
ENCODING 75
SWIDTH 500 0
DWIDTH 9 0
BBX 8 12 1 0
BITMAP
E3
42
44
48
50
68
48
44
44
42
42
E7
ENDCHAR
STARTCHAR <unknown>
ENCODING 76
SWIDTH 500 0
DWIDTH 9 0
BBX 7 12 1 0
BITMAP
E0
40
40
40
40
40
40
40
40
40
42
FE
ENDCHAR
STARTCHAR <unknown>
ENCODING 77
SWIDTH 500 0
DWIDTH 9 0
BBX 9 12 0 0
BITMAP
C180
4100
6300
6300
5500
5500
4900
4900
4100
4100
4100
E380
ENDCHAR
STARTCHAR <unknown>
ENCODING 78
SWIDTH 500 0
DWIDTH 9 0
BBX 8 12 1 0
BITMAP
C7
42
62
62
52
52
4A
4A
46
46
42
E2
ENDCHAR
STARTCHAR <unknown>
ENCODING 79
SWIDTH 500 0
DWIDTH 9 0
BBX 7 12 1 0
BITMAP
3C
46
82
82
82
82
82
82
82
82
C4
78
ENDCHAR
STARTCHAR <unknown>
ENCODING 80
SWIDTH 500 0
DWIDTH 9 0
BBX 7 12 1 0
BITMAP
FC
46
42
42
42
44
58
40
40
40
40
E0
ENDCHAR
STARTCHAR <unknown>
ENCODING 81
SWIDTH 500 0
DWIDTH 9 0
BBX 7 16 1 -4
BITMAP
3C
46
82
82
82
82
82
82
82
82
C4
78
30
10
08
06
ENDCHAR
STARTCHAR <unknown>
ENCODING 82
SWIDTH 500 0
DWIDTH 9 0
BBX 8 12 1 0
BITMAP
FC
46
42
42
42
44
78
44
44
42
42
E7
ENDCHAR
STARTCHAR <unknown>
ENCODING 83
SWIDTH 500 0
DWIDTH 9 0
BBX 7 12 1 0
BITMAP
7A
C6
82
80
C0
70
1C
06
02
82
C6
BC
ENDCHAR
STARTCHAR <unknown>
ENCODING 84
SWIDTH 500 0
DWIDTH 9 0
BBX 9 12 0 0
BITMAP
FF80
8880
0800
0800
0800
0800
0800
0800
0800
0800
0800
3E00
ENDCHAR
STARTCHAR <unknown>
ENCODING 85
SWIDTH 500 0
DWIDTH 9 0
BBX 8 12 1 0
BITMAP
E7
42
42
42
42
42
42
42
42
42
64
38
ENDCHAR
STARTCHAR <unknown>
ENCODING 86
SWIDTH 500 0
DWIDTH 9 0
BBX 9 12 0 0
BITMAP
E380
4100
4100
2200
2200
2200
1400
1400
1400
0800
0800
0800
ENDCHAR
STARTCHAR <unknown>
ENCODING 87
SWIDTH 500 0
DWIDTH 9 0
BBX 9 12 0 0
BITMAP
E380
4100
4900
4900
4900
5500
5500
3600
2200
2200
2200
2200
ENDCHAR
STARTCHAR <unknown>
ENCODING 88
SWIDTH 500 0
DWIDTH 9 0
BBX 8 12 1 0
BITMAP
E7
42
42
24
24
18
18
24
24
42
42
E7
ENDCHAR
STARTCHAR <unknown>
ENCODING 89
SWIDTH 500 0
DWIDTH 9 0
BBX 9 12 0 0
BITMAP
E380
4100
2200
2200
1400
1400
0800
0800
0800
0800
0800
1C00
ENDCHAR
STARTCHAR <unknown>
ENCODING 90
SWIDTH 500 0
DWIDTH 9 0
BBX 7 12 1 0
BITMAP
FE
84
84
08
08
10
10
20
20
42
42
FE
ENDCHAR
STARTCHAR <unknown>
ENCODING 91
SWIDTH 500 0
DWIDTH 9 0
BBX 4 14 3 -2
BITMAP
F0
80
80
80
80
80
80
80
80
80
80
80
80
F0
ENDCHAR
STARTCHAR <unknown>
ENCODING 92
SWIDTH 500 0
DWIDTH 9 0
BBX 7 13 1 -1
BITMAP
80
40
40
20
20
10
10
08
08
04
04
02
02
ENDCHAR
STARTCHAR <unknown>
ENCODING 93
SWIDTH 500 0
DWIDTH 9 0
BBX 4 14 2 -2
BITMAP
F0
10
10
10
10
10
10
10
10
10
10
10
10
F0
ENDCHAR
STARTCHAR <unknown>
ENCODING 94
SWIDTH 500 0
DWIDTH 9 0
BBX 7 4 1 7
BITMAP
10
28
44
82
ENDCHAR
STARTCHAR <unknown>
ENCODING 95
SWIDTH 500 0
DWIDTH 9 0
BBX 8 1 1 -1
BITMAP
FF
ENDCHAR
STARTCHAR <unknown>
ENCODING 96
SWIDTH 500 0
DWIDTH 9 0
BBX 3 4 3 8
BITMAP
80
80
40
20
ENDCHAR
STARTCHAR <unknown>
ENCODING 97
SWIDTH 500 0
DWIDTH 9 0
BBX 7 8 1 0
BITMAP
38
4C
04
3C
44
84
CC
76
ENDCHAR
STARTCHAR <unknown>
ENCODING 98
SWIDTH 500 0
DWIDTH 9 0
BBX 7 12 1 0
BITMAP
C0
40
40
40
5C
66
42
42
42
42
64
58
ENDCHAR
STARTCHAR <unknown>
ENCODING 99
SWIDTH 500 0
DWIDTH 9 0
BBX 7 8 1 0
BITMAP
3A
46
82
80
80
82
C4
78
ENDCHAR
STARTCHAR <unknown>
ENCODING 100
SWIDTH 500 0
DWIDTH 9 0
BBX 7 12 1 0
BITMAP
0C
04
04
04
34
4C
84
84
84
84
CC
76
ENDCHAR
STARTCHAR <unknown>
ENCODING 101
SWIDTH 500 0
DWIDTH 9 0
BBX 7 8 1 0
BITMAP
3C
46
82
FC
80
82
C4
78
ENDCHAR
STARTCHAR <unknown>
ENCODING 102
SWIDTH 500 0
DWIDTH 9 0
BBX 8 12 1 0
BITMAP
1E
31
20
20
FC
20
20
20
20
20
20
F8
ENDCHAR
STARTCHAR <unknown>
ENCODING 103
SWIDTH 500 0
DWIDTH 9 0
BBX 8 12 1 -4
BITMAP
3D
63
42
46
7C
C0
80
7E
C1
81
83
7E
ENDCHAR
STARTCHAR <unknown>
ENCODING 104
SWIDTH 500 0
DWIDTH 9 0
BBX 8 12 1 0
BITMAP
C0
40
40
40
5C
66
42
42
42
42
42
E7
ENDCHAR
STARTCHAR <unknown>
ENCODING 105
SWIDTH 500 0
DWIDTH 9 0
BBX 5 12 2 0
BITMAP
20
20
00
00
E0
20
20
20
20
20
20
F8
ENDCHAR
STARTCHAR <unknown>
ENCODING 106
SWIDTH 500 0
DWIDTH 9 0
BBX 5 16 1 -4
BITMAP
08
08
00
00
38
08
08
08
08
08
08
08
08
88
C8
70
ENDCHAR
STARTCHAR <unknown>
ENCODING 107
SWIDTH 500 0
DWIDTH 9 0
BBX 8 12 1 0
BITMAP
C0
40
40
40
46
44
48
50
68
44
42
E7
ENDCHAR
STARTCHAR <unknown>
ENCODING 108
SWIDTH 500 0
DWIDTH 9 0
BBX 5 12 2 0
BITMAP
E0
20
20
20
20
20
20
20
20
20
20
F8
ENDCHAR
STARTCHAR <unknown>
ENCODING 109
SWIDTH 500 0
DWIDTH 9 0
BBX 9 8 0 0
BITMAP
9200
6D00
4900
4900
4900
4900
4900
ED80
ENDCHAR
STARTCHAR <unknown>
ENCODING 110
SWIDTH 500 0
DWIDTH 9 0
BBX 8 8 1 0
BITMAP
DC
66
42
42
42
42
42
E7
ENDCHAR
STARTCHAR <unknown>
ENCODING 111
SWIDTH 500 0
DWIDTH 9 0
BBX 7 8 1 0
BITMAP
3C
46
82
82
82
82
C4
78
ENDCHAR
STARTCHAR <unknown>
ENCODING 112
SWIDTH 500 0
DWIDTH 9 0
BBX 7 12 1 -4
BITMAP
DC
66
42
42
42
42
64
58
40
40
40
E0
ENDCHAR
STARTCHAR <unknown>
ENCODING 113
SWIDTH 500 0
DWIDTH 9 0
BBX 7 12 1 -4
BITMAP
3A
4C
84
84
84
84
CC
74
04
04
04
0E
ENDCHAR
STARTCHAR <unknown>
ENCODING 114
SWIDTH 500 0
DWIDTH 9 0
BBX 7 8 1 0
BITMAP
DC
62
40
40
40
40
40
E0
ENDCHAR
STARTCHAR <unknown>
ENCODING 115
SWIDTH 500 0
DWIDTH 9 0
BBX 7 8 1 0
BITMAP
3A
46
42
30
0C
82
C2
BC
ENDCHAR
STARTCHAR <unknown>
ENCODING 116
SWIDTH 500 0
DWIDTH 9 0
BBX 7 12 1 0
BITMAP
20
20
20
20
FC
20
20
20
20
22
32
1C
ENDCHAR
STARTCHAR <unknown>
ENCODING 117
SWIDTH 500 0
DWIDTH 9 0
BBX 8 8 1 0
BITMAP
C6
42
42
42
42
42
66
3B
ENDCHAR
STARTCHAR <unknown>
ENCODING 118
SWIDTH 500 0
DWIDTH 9 0
BBX 7 8 1 0
BITMAP
EE
44
44
28
28
28
10
10
ENDCHAR
STARTCHAR <unknown>
ENCODING 119
SWIDTH 500 0
DWIDTH 9 0
BBX 9 8 0 0
BITMAP
E380
4900
4900
5D00
3600
2200
2200
2200
ENDCHAR
STARTCHAR <unknown>
ENCODING 120
SWIDTH 500 0
DWIDTH 9 0
BBX 8 8 1 0
BITMAP
E7
42
24
18
18
24
42
E7
ENDCHAR
STARTCHAR <unknown>
ENCODING 121
SWIDTH 500 0
DWIDTH 9 0
BBX 8 12 1 -4
BITMAP
E7
42
42
24
24
14
18
08
10
10
20
C0
ENDCHAR
STARTCHAR <unknown>
ENCODING 122
SWIDTH 500 0
DWIDTH 9 0
BBX 7 8 1 0
BITMAP
FE
84
08
10
20
40
82
FE
ENDCHAR
STARTCHAR <unknown>
ENCODING 123
SWIDTH 500 0
DWIDTH 9 0
BBX 6 14 2 -2
BITMAP
1C
20
20
20
20
20
C0
20
20
20
20
20
20
1C
ENDCHAR
STARTCHAR <unknown>
ENCODING 124
SWIDTH 500 0
DWIDTH 9 0
BBX 1 14 4 -2
BITMAP
80
80
80
80
80
80
80
80
80
80
80
80
80
80
ENDCHAR
STARTCHAR <unknown>
ENCODING 125
SWIDTH 500 0
DWIDTH 9 0
BBX 6 14 2 -2
BITMAP
E0
10
10
10
10
10
0C
10
10
10
10
10
10
E0
ENDCHAR
STARTCHAR <unknown>
ENCODING 126
SWIDTH 500 0
DWIDTH 9 0
BBX 7 3 1 8
BITMAP
62
92
8C
ENDCHAR
STARTCHAR <unknown>
ENCODING 127
SWIDTH 0 0
DWIDTH 0 0
BBX 0 0 0 0
BITMAP
ENDCHAR
STARTCHAR <unknown>
ENCODING 128
SWIDTH 666 0
DWIDTH 12 0
BBX 10 8 1 0
BITMAP
7FC0
C000
8000
8000
C000
7FC0
0000
FFC0
ENDCHAR
STARTCHAR <unknown>
ENCODING 129
SWIDTH 333 0
DWIDTH 6 0
BBX 5 9 1 0
BITMAP
80
C0
A0
90
F8
90
A0
C0
80
ENDCHAR
STARTCHAR <unknown>
ENCODING 130
SWIDTH 500 0
DWIDTH 9 0
BBX 7 8 1 0
BITMAP
92
92
FE
92
92
82
C6
7C
ENDCHAR
STARTCHAR <unknown>
ENCODING 131
SWIDTH 666 0
DWIDTH 12 0
BBX 11 12 1 0
BITMAP
FBE0
5140
5080
5080
5080
5080
5080
5080
5080
5080
3100
1E00
ENDCHAR
STARTCHAR <unknown>
ENCODING 132
SWIDTH 777 0
DWIDTH 14 0
BBX 12 12 1 0
BITMAP
0600
0600
0900
0900
1080
1080
2040
2040
6060
4020
C030
FFF0
ENDCHAR
STARTCHAR <unknown>
ENCODING 133
SWIDTH 666 0
DWIDTH 12 0
BBX 5 5 3 2
BITMAP
70
88
88
88
70
ENDCHAR
STARTCHAR <unknown>
ENCODING 134
SWIDTH 611 0
DWIDTH 11 0
BBX 9 12 1 0
BITMAP
3E00
0800
0800
3E00
4900
8880
8880
4900
3E00
0800
0800
3E00
ENDCHAR
STARTCHAR <unknown>
ENCODING 135
SWIDTH 611 0
DWIDTH 11 0
BBX 9 12 1 0
BITMAP
FF80
2180
2080
2080
2000
2000
2000
2000
2000
2000
2000
F800
ENDCHAR
STARTCHAR <unknown>
ENCODING 136
SWIDTH 833 0
DWIDTH 15 0
BBX 8 10 7 3
BITMAP
C0
C0
C0
C0
C0
C0
C0
C0
FF
FF
ENDCHAR
STARTCHAR <unknown>
ENCODING 137
SWIDTH 611 0
DWIDTH 11 0
BBX 11 10 0 -1
BITMAP
E0E0
3180
1100
1B00
0A00
0A00
0E00
0E00
0400
0400
ENDCHAR
STARTCHAR <unknown>
ENCODING 138
SWIDTH 722 0
DWIDTH 13 0
BBX 11 12 1 0
BITMAP
1F00
2080
4040
4040
9120
9F20
9120
8020
C060
4040
2080
1F00
ENDCHAR
STARTCHAR <unknown>
ENCODING 139
SWIDTH 833 0
DWIDTH 15 0
BBX 13 12 1 -1
BITMAP
0808
3608
4110
8090
0020
0020
0040
0040
0080
0080
0100
0100
ENDCHAR
STARTCHAR <unknown>
ENCODING 140
SWIDTH 722 0
DWIDTH 13 0
BBX 11 12 1 0
BITMAP
0400
0400
0A00
0A00
0A00
0A00
1100
1100
1100
2080
2080
FBE0
ENDCHAR
STARTCHAR <unknown>
ENCODING 141
SWIDTH 500 0
DWIDTH 9 0
BBX 7 7 1 0
BITMAP
3E
40
80
FE
80
40
3E
ENDCHAR
STARTCHAR <unknown>
ENCODING 142
SWIDTH 500 0
DWIDTH 9 0
BBX 7 11 1 -2
BITMAP
02
02
3E
44
88
FE
88
50
3E
20
20
ENDCHAR
STARTCHAR <unknown>
ENCODING 143
SWIDTH 833 0
DWIDTH 15 0
BBX 14 7 1 2
BITMAP
8120
4090
2048
1FFC
2048
4090
8120
ENDCHAR
STARTCHAR <unknown>
ENCODING 144
SWIDTH 777 0
DWIDTH 14 0
BBX 12 12 1 0
BITMAP
FFF0
2040
2040
2040
2040
2040
2040
2040
2040
2040
2040
F9F0
ENDCHAR
STARTCHAR <unknown>
ENCODING 145
SWIDTH 611 0
DWIDTH 11 0
BBX 9 15 1 -4
BITMAP
FF00
8000
8000
8000
8000
8000
8000
8000
0000
8A00
DA00
AA00
AA00
8A00
8B80
ENDCHAR
STARTCHAR <unknown>
ENCODING 146
SWIDTH 333 0
DWIDTH 6 0
BBX 5 9 1 0
BITMAP
80
C0
A0
90
88
90
A0
C0
80
ENDCHAR
STARTCHAR <unknown>
ENCODING 147
SWIDTH 666 0
DWIDTH 12 0
BBX 10 12 1 0
BITMAP
FFC0
C0C0
4040
2040
1000
1000
1800
1000
2040
2040
40C0
FFC0
ENDCHAR
STARTCHAR <unknown>
ENCODING 148
SWIDTH 555 0
DWIDTH 10 0
BBX 8 8 1 3
BITMAP
FF
80
83
83
80
80
83
83
ENDCHAR
STARTCHAR <unknown>
ENCODING 149
SWIDTH 722 0
DWIDTH 13 0
BBX 11 12 1 0
BITMAP
71C0
8A20
0400
0400
0400
0400
0400
0400
0400
0400
0400
1F00
ENDCHAR
STARTCHAR <unknown>
ENCODING 150
SWIDTH 555 0
DWIDTH 10 0
BBX 9 12 1 0
BITMAP
FE00
5100
5100
5100
5300
5E00
5100
5080
5080
5080
5180
FF00
ENDCHAR
STARTCHAR <unknown>
ENCODING 151
SWIDTH 666 0
DWIDTH 12 0
BBX 10 12 1 0
BITMAP
1E00
6180
8040
8040
8040
8040
4080
4080
2100
A140
5280
7380
ENDCHAR
STARTCHAR <unknown>
ENCODING 152
SWIDTH 611 0
DWIDTH 11 0
BBX 9 12 1 0
BITMAP
FF80
8080
0000
0000
4100
7F00
4100
0000
0000
8080
8080
FF80
ENDCHAR
STARTCHAR <unknown>
ENCODING 153
SWIDTH 722 0
DWIDTH 13 0
BBX 11 12 1 0
BITMAP
1F00
0400
C460
4440
4440
4440
4440
2480
1F00
0400
0400
1F00
ENDCHAR
STARTCHAR <unknown>
ENCODING 154
SWIDTH 500 0
DWIDTH 9 0
BBX 9 14 0 -1
BITMAP
0080
1F00
2300
4300
4300
4500
4900
4900
5100
6100
6100
6200
7C00
8000
ENDCHAR
STARTCHAR <unknown>
ENCODING 155
SWIDTH 611 0
DWIDTH 11 0
BBX 11 10 0 -1
BITMAP
0400
0400
0E00
0A00
0A00
0A00
1B00
1100
3180
E0E0
ENDCHAR
STARTCHAR <unknown>
ENCODING 156
SWIDTH 888 0
DWIDTH 16 0
BBX 16 6 0 -1
BITMAP
FFFF
FFFF
0000
0000
FFFF
FFFF
ENDCHAR
STARTCHAR <unknown>
ENCODING 157
SWIDTH 833 0
DWIDTH 15 0
BBX 8 10 7 -5
BITMAP
FF
FF
C0
C0
FF
FF
C0
C0
C0
C0
ENDCHAR
STARTCHAR <unknown>
ENCODING 158
SWIDTH 833 0
DWIDTH 15 0
BBX 14 7 1 2
BITMAP
8520
4510
2508
1FFC
2508
4510
8520
ENDCHAR
STARTCHAR <unknown>
ENCODING 159
SWIDTH 833 0
DWIDTH 15 0
BBX 14 7 1 2
BITMAP
0520
0510
0508
FFFC
0508
0510
0520
ENDCHAR
STARTCHAR <unknown>
ENCODING 160
SWIDTH 666 0
DWIDTH 12 0
BBX 10 6 1 2
BITMAP
7FC0
C000
8000
8000
C000
7FC0
ENDCHAR
STARTCHAR <unknown>
ENCODING 161
SWIDTH 500 0
DWIDTH 9 0
BBX 7 8 1 0
BITMAP
7C
C6
82
82
82
82
82
82
ENDCHAR
STARTCHAR <unknown>
ENCODING 162
SWIDTH 333 0
DWIDTH 6 0
BBX 4 15 1 -2
BITMAP
80
80
40
40
20
20
10
10
10
20
20
40
40
80
80
ENDCHAR
STARTCHAR <unknown>
ENCODING 163
SWIDTH 611 0
DWIDTH 11 0
BBX 9 9 1 0
BITMAP
1C00
6300
4100
8080
FF80
8080
4100
6300
1C00
ENDCHAR
STARTCHAR <unknown>
ENCODING 164
SWIDTH 888 0
DWIDTH 16 0
BBX 14 7 1 2
BITMAP
1020
2010
7FF8
8004
7FF8
2010
1020
ENDCHAR
STARTCHAR <unknown>
ENCODING 165
SWIDTH 666 0
DWIDTH 12 0
BBX 10 10 1 -1
BITMAP
3F00
7F80
E1C0
C0C0
C0C0
C0C0
C0C0
C0C0
C0C0
C0C0
ENDCHAR
STARTCHAR <unknown>
ENCODING 166
SWIDTH 500 0
DWIDTH 9 0
BBX 7 6 1 2
BITMAP
10
28
44
FE
00
FE
ENDCHAR
STARTCHAR <unknown>
ENCODING 167
SWIDTH 333 0
DWIDTH 6 0
BBX 4 15 1 -2
BITMAP
10
10
20
20
40
40
80
80
80
40
40
20
20
10
10
ENDCHAR
STARTCHAR <unknown>
ENCODING 168
SWIDTH 333 0
DWIDTH 6 0
BBX 4 14 1 -2
BITMAP
10
20
60
60
A0
A0
A0
A0
A0
A0
60
60
20
10
ENDCHAR
STARTCHAR <unknown>
ENCODING 169
SWIDTH 333 0
DWIDTH 6 0
BBX 4 14 1 -2
BITMAP
80
40
60
60
50
50
50
50
50
50
60
60
40
80
ENDCHAR
STARTCHAR <unknown>
ENCODING 170
SWIDTH 888 0
DWIDTH 16 0
BBX 14 7 1 2
BITMAP
1020
2010
4008
FFFC
4008
2010
1020
ENDCHAR
STARTCHAR <unknown>
ENCODING 171
SWIDTH 611 0
DWIDTH 11 0
BBX 9 9 1 0
BITMAP
1C00
6B00
4900
8880
FF80
8880
4900
6B00
1C00
ENDCHAR
STARTCHAR <unknown>
ENCODING 172
SWIDTH 555 0
DWIDTH 10 0
BBX 8 8 1 3
BITMAP
FF
80
80
80
80
80
80
80
ENDCHAR
STARTCHAR <unknown>
ENCODING 173
SWIDTH 722 0
DWIDTH 13 0
BBX 12 7 1 2
BITMAP
0080
0040
0020
FFF0
0020
0040
0080
ENDCHAR
STARTCHAR <unknown>
ENCODING 174
SWIDTH 555 0
DWIDTH 10 0
BBX 8 8 1 3
BITMAP
FF
01
01
01
01
01
01
01
ENDCHAR
STARTCHAR <unknown>
ENCODING 175
SWIDTH 611 0
DWIDTH 11 0
BBX 10 12 1 0
BITMAP
FF00
5180
5080
5080
5080
5100
5E00
5100
5100
5080
5080
F9C0
ENDCHAR
STARTCHAR <unknown>
ENCODING 176
SWIDTH 611 0
DWIDTH 11 0
BBX 9 9 1 0
BITMAP
FF80
FF80
FF80
FF80
FF80
FF80
FF80
FF80
FF80
ENDCHAR
STARTCHAR <unknown>
ENCODING 177
SWIDTH 611 0
DWIDTH 11 0
BBX 9 10 1 0
BITMAP
0800
0800
1400
1400
2200
2200
4100
4100
8080
8080
ENDCHAR
STARTCHAR <unknown>
ENCODING 178
SWIDTH 611 0
DWIDTH 11 0
BBX 9 10 1 0
BITMAP
8080
8080
4100
4100
2200
2200
1400
1400
0800
0800
ENDCHAR
STARTCHAR <unknown>
ENCODING 179
SWIDTH 666 0
DWIDTH 12 0
BBX 10 5 1 2
BITMAP
FFC0
0040
0040
0040
0040
ENDCHAR
STARTCHAR <unknown>
ENCODING 180
SWIDTH 666 0
DWIDTH 12 0
BBX 10 7 1 2
BITMAP
0200
0100
FF80
0040
FF80
0100
0200
ENDCHAR
STARTCHAR <unknown>
ENCODING 181
SWIDTH 500 0
DWIDTH 9 0
BBX 9 12 0 0
BITMAP
E380
4100
4100
2200
3E00
2200
1400
1400
1400
0800
0800
0800
ENDCHAR
STARTCHAR <unknown>
ENCODING 182
SWIDTH 500 0
DWIDTH 9 0
BBX 7 12 1 0
BITMAP
FE
84
04
04
04
7C
04
04
04
04
84
FE
ENDCHAR
STARTCHAR <unknown>
ENCODING 183
SWIDTH 388 0
DWIDTH 7 0
BBX 3 3 2 3
BITMAP
E0
E0
E0
ENDCHAR
STARTCHAR <unknown>
ENCODING 184
SWIDTH 500 0
DWIDTH 9 0
BBX 7 7 1 2
BITMAP
82
44
28
10
28
44
82
ENDCHAR
STARTCHAR <unknown>
ENCODING 185
SWIDTH 555 0
DWIDTH 10 0
BBX 8 16 1 -4
BITMAP
3C
42
81
99
A5
A5
A5
91
89
A5
A5
A5
99
81
42
3C
ENDCHAR
STARTCHAR <unknown>
ENCODING 186
SWIDTH 666 0
DWIDTH 12 0
BBX 5 12 3 -2
BITMAP
70
A8
F8
A8
70
00
00
70
A8
F8
A8
70
ENDCHAR
STARTCHAR <unknown>
ENCODING 187
SWIDTH 666 0
DWIDTH 12 0
BBX 5 15 3 -5
BITMAP
70
88
88
88
70
00
00
70
88
88
88
78
10
20
40
ENDCHAR
STARTCHAR <unknown>
ENCODING 188
SWIDTH 555 0
DWIDTH 10 0
BBX 8 12 1 -1
BITMAP
01
02
04
08
10
20
90
48
24
12
09
04
ENDCHAR
STARTCHAR <unknown>
ENCODING 189
SWIDTH 555 0
DWIDTH 10 0
BBX 8 7 1 2
BITMAP
02
04
FF
10
FF
20
40
ENDCHAR
STARTCHAR <unknown>
ENCODING 190
SWIDTH 555 0
DWIDTH 10 0
BBX 8 12 1 -1
BITMAP
80
40
20
10
08
04
09
12
24
48
90
20
ENDCHAR
STARTCHAR char4
ENCODING 191
SWIDTH 555 0
DWIDTH 10 0
BBX 8 12 1 0
BITMAP
3D
D3
A1
A0
B0
4C
32
0D
05
85
CB
BC
ENDCHAR
STARTCHAR <unknown>
ENCODING 192
SWIDTH 500 0
DWIDTH 9 0
BBX 7 8 1 0
BITMAP
82
82
82
82
82
82
C6
7C
ENDCHAR
STARTCHAR <unknown>
ENCODING 193
SWIDTH 611 0
DWIDTH 11 0
BBX 9 7 1 0
BITMAP
3000
4900
8500
8500
8200
4680
3980
ENDCHAR
STARTCHAR <unknown>
ENCODING 194
SWIDTH 444 0
DWIDTH 8 0
BBX 6 15 1 -3
BITMAP
38
44
84
84
84
F8
88
84
84
84
C8
B8
80
80
80
ENDCHAR
STARTCHAR <unknown>
ENCODING 195
SWIDTH 777 0
DWIDTH 14 0
BBX 12 11 1 -3
BITMAP
FFF0
8000
8000
8000
8000
8000
8000
8000
FFF0
0000
FFF0
ENDCHAR
STARTCHAR <unknown>
ENCODING 196
SWIDTH 388 0
DWIDTH 7 0
BBX 5 12 1 0
BITMAP
70
88
80
80
40
30
50
88
88
88
48
30
ENDCHAR
STARTCHAR <unknown>
ENCODING 197
SWIDTH 444 0
DWIDTH 8 0
BBX 6 7 1 0
BITMAP
78
C0
F0
80
80
44
38
ENDCHAR
STARTCHAR <unknown>
ENCODING 198
SWIDTH 500 0
DWIDTH 9 0
BBX 7 15 1 -3
BITMAP
10
10
10
10
10
38
54
92
92
92
54
38
10
10
10
ENDCHAR
STARTCHAR <unknown>
ENCODING 199
SWIDTH 555 0
DWIDTH 10 0
BBX 8 10 1 -3
BITMAP
71
C9
85
06
02
02
02
02
02
02
ENDCHAR
STARTCHAR <unknown>
ENCODING 200
SWIDTH 500 0
DWIDTH 9 0
BBX 7 10 1 -3
BITMAP
CC
B2
A2
22
22
22
22
02
02
02
ENDCHAR
STARTCHAR <unknown>
ENCODING 201
SWIDTH 277 0
DWIDTH 5 0
BBX 3 7 1 0
BITMAP
80
80
80
80
A0
A0
C0
ENDCHAR
STARTCHAR <unknown>
ENCODING 202
SWIDTH 388 0
DWIDTH 7 0
BBX 5 12 1 0
BITMAP
20
50
88
88
88
F8
F8
88
88
88
50
20
ENDCHAR
STARTCHAR <unknown>
ENCODING 203
SWIDTH 500 0
DWIDTH 9 0
BBX 7 7 1 0
BITMAP
8C
90
E0
B0
8A
8A
86
ENDCHAR
STARTCHAR <unknown>
ENCODING 204
SWIDTH 555 0
DWIDTH 10 0
BBX 8 12 1 0
BITMAP
C0
20
20
10
10
08
08
0C
14
22
22
41
ENDCHAR
STARTCHAR <unknown>
ENCODING 205
SWIDTH 500 0
DWIDTH 9 0
BBX 7 10 1 -3
BITMAP
88
88
88
88
8A
9A
F6
80
80
80
ENDCHAR
STARTCHAR <unknown>
ENCODING 206
SWIDTH 444 0
DWIDTH 8 0
BBX 6 7 1 0
BITMAP
C4
44
44
48
48
50
60
ENDCHAR
STARTCHAR <unknown>
ENCODING 207
SWIDTH 888 0
DWIDTH 16 0
BBX 15 7 0 2
BITMAP
0490
0448
0424
FFFE
0424
0448
0490
ENDCHAR
STARTCHAR <unknown>
ENCODING 208
SWIDTH 555 0
DWIDTH 10 0
BBX 8 7 1 0
BITMAP
7F
94
94
14
14
14
22
ENDCHAR
STARTCHAR <unknown>
ENCODING 209
SWIDTH 666 0
DWIDTH 12 0
BBX 10 10 1 -3
BITMAP
C100
A100
1200
1400
0C00
0C00
0A00
1200
2140
20C0
ENDCHAR
STARTCHAR <unknown>
ENCODING 210
SWIDTH 388 0
DWIDTH 7 0
BBX 5 10 1 -3
BITMAP
70
50
88
88
88
D0
F0
80
80
80
ENDCHAR
STARTCHAR <unknown>
ENCODING 211
SWIDTH 500 0
DWIDTH 9 0
BBX 7 7 1 0
BITMAP
3E
48
84
84
84
48
30
ENDCHAR
STARTCHAR <unknown>
ENCODING 212
SWIDTH 500 0
DWIDTH 9 0
BBX 7 7 1 0
BITMAP
7E
90
90
10
10
10
10
ENDCHAR
STARTCHAR <unknown>
ENCODING 213
SWIDTH 555 0
DWIDTH 10 0
BBX 8 7 1 0
BITMAP
62
A1
A1
21
21
22
1C
ENDCHAR
STARTCHAR <unknown>
ENCODING 214
SWIDTH 555 0
DWIDTH 10 0
BBX 8 12 1 0
BITMAP
3D
63
A1
A0
A0
A0
A0
A0
A1
A1
E2
7C
ENDCHAR
STARTCHAR <unknown>
ENCODING 215
SWIDTH 666 0
DWIDTH 12 0
BBX 10 7 1 0
BITMAP
4080
8040
8440
8440
8440
4E80
3380
ENDCHAR
STARTCHAR <unknown>
ENCODING 216
SWIDTH 444 0
DWIDTH 8 0
BBX 6 15 1 -3
BITMAP
20
20
78
80
80
80
78
40
80
80
80
40
38
04
1C
ENDCHAR
STARTCHAR <unknown>
ENCODING 217
SWIDTH 611 0
DWIDTH 11 0
BBX 9 15 1 -3
BITMAP
0400
0400
0400
0400
0400
6500
A480
A480
2480
2480
1500
0E00
0400
0400
0400
ENDCHAR
STARTCHAR <unknown>
ENCODING 218
SWIDTH 444 0
DWIDTH 8 0
BBX 6 15 1 -3
BITMAP
20
20
38
40
40
80
80
80
80
80
40
60
1C
04
1C
ENDCHAR
STARTCHAR <unknown>
ENCODING 219
SWIDTH 555 0
DWIDTH 10 0
BBX 8 16 1 -4
BITMAP
F0
80
80
80
80
80
80
80
80
80
80
91
8A
E4
0A
11
ENDCHAR
STARTCHAR <unknown>
ENCODING 220
SWIDTH 833 0
DWIDTH 15 0
BBX 2 18 7 -5
BITMAP
C0
C0
C0
C0
C0
C0
C0
C0
C0
C0
C0
C0
C0
C0
C0
C0
C0
C0
ENDCHAR
STARTCHAR <unknown>
ENCODING 221
SWIDTH 500 0
DWIDTH 9 0
BBX 7 16 1 -4
BITMAP
1E
02
02
02
02
02
02
02
02
02
02
8A
52
26
50
88
ENDCHAR
STARTCHAR <unknown>
ENCODING 222
SWIDTH 666 0
DWIDTH 12 0
BBX 10 10 1 -1
BITMAP
C0C0
C0C0
C0C0
C0C0
C0C0
C0C0
C0C0
E1C0
7F80
3F00
ENDCHAR
STARTCHAR <unknown>
ENCODING 223
SWIDTH 833 0
DWIDTH 15 0
BBX 13 7 1 2
BITMAP
0440
0420
0410
FFF8
0410
0420
0440
ENDCHAR
STARTCHAR <unknown>
ENCODING 224
SWIDTH 833 0
DWIDTH 15 0
BBX 13 7 1 2
BITMAP
8040
4020
2010
3FF8
2010
4020
8040
ENDCHAR
STARTCHAR <unknown>
ENCODING 225
SWIDTH 388 0
DWIDTH 7 0
BBX 5 9 1 0
BITMAP
08
18
28
48
F8
48
28
18
08
ENDCHAR
STARTCHAR <unknown>
ENCODING 226
SWIDTH 722 0
DWIDTH 13 0
BBX 11 11 1 0
BITMAP
0400
0400
0400
0400
0400
0400
0400
0400
0400
0400
FFE0
ENDCHAR
STARTCHAR <unknown>
ENCODING 227
SWIDTH 666 0
DWIDTH 12 0
BBX 10 7 1 2
BITMAP
1000
2000
7FC0
8000
7FC0
2000
1000
ENDCHAR
STARTCHAR <unknown>
ENCODING 228
SWIDTH 666 0
DWIDTH 12 0
BBX 10 6 1 2
BITMAP
FF80
00C0
0040
0040
00C0
FF80
ENDCHAR
STARTCHAR <unknown>
ENCODING 229
SWIDTH 666 0
DWIDTH 12 0
BBX 10 8 1 0
BITMAP
FF80
00C0
0040
0040
00C0
FF80
0000
FFC0
ENDCHAR
STARTCHAR <unknown>
ENCODING 230
SWIDTH 555 0
DWIDTH 10 0
BBX 9 12 1 0
BITMAP
FF80
5080
5000
5000
5000
5F00
5000
5000
5000
5000
5000
F800
ENDCHAR
STARTCHAR <unknown>
ENCODING 231
SWIDTH 722 0
DWIDTH 13 0
BBX 11 11 1 0
BITMAP
03E0
0060
00A0
0120
0220
0400
0800
1000
2000
4000
8000
ENDCHAR
STARTCHAR <unknown>
ENCODING 232
SWIDTH 666 0
DWIDTH 12 0
BBX 10 10 1 1
BITMAP
8000
4000
2000
1000
0800
0440
0240
0140
00C0
07C0
ENDCHAR
STARTCHAR <unknown>
ENCODING 233
SWIDTH 777 0
DWIDTH 14 0
BBX 13 7 1 0
BITMAP
FFF8
0000
0000
FFF8
0000
0000
FFF8
ENDCHAR
STARTCHAR <unknown>
ENCODING 234
SWIDTH 500 0
DWIDTH 9 0
BBX 7 13 1 -1
BITMAP
10
38
54
92
10
10
10
10
10
92
54
38
10
ENDCHAR
STARTCHAR <unknown>
ENCODING 235
SWIDTH 555 0
DWIDTH 10 0
BBX 9 4 1 7
BITMAP
0800
3600
4100
8080
ENDCHAR
STARTCHAR <unknown>
ENCODING 236
SWIDTH 277 0
DWIDTH 5 0
BBX 4 13 1 -1
BITMAP
10
10
30
30
50
90
10
10
10
10
10
10
10
ENDCHAR
STARTCHAR <unknown>
ENCODING 237
SWIDTH 833 0
DWIDTH 15 0
BBX 13 7 1 2
BITMAP
8040
8020
8010
FFF8
8010
8020
8040
ENDCHAR
STARTCHAR <unknown>
ENCODING 238
SWIDTH 611 0
DWIDTH 11 0
BBX 10 12 1 0
BITMAP
F1C0
5080
6880
6880
5480
5480
4A80
4A80
4580
4580
4280
E380
ENDCHAR
STARTCHAR <unknown>
ENCODING 239
SWIDTH 833 0
DWIDTH 15 0
BBX 13 7 1 2
BITMAP
0240
0120
0090
FFF8
0090
0120
0240
ENDCHAR
STARTCHAR <unknown>
ENCODING 240
SWIDTH 611 0
DWIDTH 11 0
BBX 9 12 1 0
BITMAP
FF00
5180
5080
5080
5080
5100
5600
5000
5000
5000
5000
F800
ENDCHAR
STARTCHAR <unknown>
ENCODING 241
SWIDTH 555 0
DWIDTH 10 0
BBX 8 15 1 -4
BITMAP
FF
80
80
80
80
80
80
80
00
7E
44
08
10
26
7E
ENDCHAR
STARTCHAR <unknown>
ENCODING 242
SWIDTH 388 0
DWIDTH 7 0
BBX 5 9 1 0
BITMAP
08
18
28
48
88
48
28
18
08
ENDCHAR
STARTCHAR <unknown>
ENCODING 243
SWIDTH 611 0
DWIDTH 11 0
BBX 9 16 1 -4
BITMAP
3F00
5780
A280
A280
A280
A280
A280
A280
A280
A280
F500
7E00
3C00
1400
0A00
0780
ENDCHAR
STARTCHAR <unknown>
ENCODING 244
SWIDTH 388 0
DWIDTH 7 0
BBX 6 9 1 1
BITMAP
80
80
80
80
FC
80
80
80
80
ENDCHAR
STARTCHAR <unknown>
ENCODING 245
SWIDTH 833 0
DWIDTH 15 0
BBX 13 16 1 -4
BITMAP
F800
8000
F000
8000
B3B8
AA20
3330
2A20
2BB8
0000
0000
1DC0
1100
19C0
1040
11C0
ENDCHAR
STARTCHAR <unknown>
ENCODING 246
SWIDTH 833 0
DWIDTH 15 0
BBX 13 16 1 -4
BITMAP
F800
8000
F000
8000
B3B8
AA20
3330
2A20
2BB8
0000
0000
1DC0
1100
19C0
1140
11C0
ENDCHAR
STARTCHAR <unknown>
ENCODING 247
SWIDTH 833 0
DWIDTH 15 0
BBX 8 18 7 -5
BITMAP
C0
C0
C0
C0
C0
C0
C0
C0
FF
FF
C0
C0
C0
C0
C0
C0
C0
C0
ENDCHAR
STARTCHAR <unknown>
ENCODING 248
SWIDTH 833 0
DWIDTH 15 0
BBX 13 16 1 -4
BITMAP
F800
8000
F000
8000
B3B8
AA20
3330
2A20
2BB8
0000
0000
1DC0
1140
19C0
1140
11C0
ENDCHAR
STARTCHAR <unknown>
ENCODING 249
SWIDTH 444 0
DWIDTH 8 0
BBX 4 13 2 -1
BITMAP
80
80
C0
C0
A0
90
80
80
80
80
80
80
80
ENDCHAR
STARTCHAR <unknown>
ENCODING 250
SWIDTH 500 0
DWIDTH 9 0
BBX 7 12 1 0
BITMAP
FE
8A
8A
14
14
28
28
50
50
A2
A2
FE
ENDCHAR
STARTCHAR <unknown>
ENCODING 251
SWIDTH 388 0
DWIDTH 7 0
BBX 5 14 1 -2
BITMAP
F8
A0
A0
A0
A0
A0
A0
A0
A0
A0
A0
A0
A0
F8
ENDCHAR
STARTCHAR <unknown>
ENCODING 252
SWIDTH 833 0
DWIDTH 15 0
BBX 15 2 0 3
BITMAP
FFFE
FFFE
ENDCHAR
STARTCHAR <unknown>
ENCODING 253
SWIDTH 388 0
DWIDTH 7 0
BBX 5 14 1 -2
BITMAP
F8
28
28
28
28
28
28
28
28
28
28
28
28
F8
ENDCHAR
STARTCHAR <unknown>
ENCODING 254
SWIDTH 833 0
DWIDTH 15 0
BBX 13 7 1 2
BITMAP
8240
4220
2210
3FF8
2210
4220
8240
ENDCHAR
STARTCHAR <unknown>
ENCODING 255
SWIDTH 833 0
DWIDTH 15 0
BBX 8 10 7 -5
BITMAP
FF
FF
C0
C0
C0
C0
C0
C0
C0
C0
ENDCHAR
ENDFONT
